
<svg id="visual" viewBox="0 0 960 540" width="960" height="540" xmlns="http://www.w3.org/2000/svg" xmlns:xlink="http://www.w3.org/1999/xlink" xml:space="preserve" overflow="hidden"><g transform="translate(-251 -35)"><path d="M505.11 248.125 587.331 248.125 505.31 106.042C429.382 123.796 366.378 176.518 335.514 248.125Z" fill="#0000FF"/><path d="M643.266 293.333 643.118 293.417 658.411 319.896 740.542 177.729C694.189 127.837 629.141 99.5178 561.039 99.5833 551.466 99.6027 541.903 100.177 532.396 101.301Z" fill="#0000FF"/><path d="M632.739 416.042 795.974 416.042C818.412 341.724 804.39 261.173 758.16 198.809Z" fill="#0000FF"/><path d="M616.968 441.875 534.747 441.875 616.768 583.958C692.694 566.204 755.697 513.483 786.557 441.875Z" fill="#0000FF"/><path d="M478.805 396.667 478.96 396.583 463.563 369.923 381.458 512.174C427.812 562.124 492.895 590.481 561.039 590.417 570.611 590.397 580.175 589.823 589.682 588.699Z" fill="#0000FF"/><path d="M489.138 273.958 326.104 273.958C303.685 348.211 317.663 428.692 363.808 491.036Z" fill="#0000FF"/></g></svg>